<?xml version="1.0" encoding="utf-8"?>
<!-- Generator: Adobe Illustrator 25.2.3, SVG Export Plug-In . SVG Version: 6.00 Build 0)  -->
<svg version="1.1" xmlns="http://www.w3.org/2000/svg" xmlns:xlink="http://www.w3.org/1999/xlink" x="0px" y="0px"
	 viewBox="0 0 1920 1080" style="enable-background:new 0 0 1920 1080;" xml:space="preserve">
<style type="text/css">
	.st0{fill:#99CCFF;}
	.st1{opacity:0.5;}
	.st2{fill:#118AB2;}
	.st3{fill:#FFFFFF;}
</style>
<g id="BACKGROUND">
</g>
<g id="OBJECTS">
	<g>
		<g>
			<g>
				<path class="st0" d="M-64.9,814.4c1.6-26.4,21.7-47.5,44.4-58.8c22.9-11.4,50-13.4,74.8-7.9c24.8,5.5,48.1,18.6,64.8,37.8
					c17.4,20.1,26.9,46.3,27.9,72.8c1,26.2-6.2,53.7-22.4,74.6c-8.1,10.5-19.7,20.2-33.5,21.1c-6,0.4-12.7-1.1-17.2-5.3
					c-5.6-5.2-5.7-13.1-3.5-19.9c4.1-12.4,15.7-21.2,28.1-24.3c15.4-3.8,31.8,0.2,45.7,7c23.4,11.3,41.8,31.1,53.5,54.2
					c12.4,24.4,16.9,51.9,14.1,79.1c-3.1,29.8-14.7,58.4-31,83.4c-4.1,6.2-8.4,12.2-13.1,18c-1.3,1.6,1,3.8,2.2,2.2
					c19.7-24.4,34.8-53,41.7-83.7c6.5-28.7,5.5-58.8-5-86.5c-9.6-25.3-26.4-48.1-49.2-62.8C133.8,900.1,98.1,891,76,914
					c-8.9,9.2-15.4,26.6-4.5,36.9c9.9,9.4,25.5,7.4,36.5,1.3c12.4-6.9,21.5-18.8,28.1-31.1c6.5-12.2,10.8-25.5,12.8-39.1
					c4-27.3-0.8-55.9-14.3-80c-13.3-23.5-34.9-41.3-59.9-51.3c-24.8-9.9-53-12-78.8-4.7c-25.4,7.2-49.9,24.7-59.8,49.9
					c-2.4,5.9-3.7,12.2-4.1,18.6C-68.1,816.5-65,816.5-64.9,814.4L-64.9,814.4z"/>
			</g>
		</g>
		<g class="st1">
			<path class="st0" d="M-235.9,325.7c23.5,46.1,61.6,85.8,109.4,105.5c47.9,19.7,105.5,17.5,148.8-10.7
				c45.3-29.5,69.4-81.4,94.9-129.1s58.8-97,110.6-112.5c33.8-10.1,70.1-4,105.3-0.9c67,5.9,143.3-4.1,184.4-57.3
				c25.4-32.8,32.4-77.4,24.9-118.2c-7.4-40.8-28-78.2-53.1-111.3H-278L-235.9,325.7z"/>
		</g>
		<g class="st1">
			<path class="st0" d="M144,1165.5c-25.7-51.8-1.4-122.4,50.8-147.3c33.9-16.2,73.5-13.9,110.6-8.3c70,10.7,145,31.5,208.9,0.9
				c38.3-18.4,66.2-52.7,100.7-77.5c56.5-40.5,129.1-53.6,198.4-48.3c61.9,4.7,124.9,24.4,169.6,67.5c49.4,47.6,70.9,119.2,68,187.7
				c-2.8,68.5-27.8,134.4-60,194.9L144,1165.5z"/>
		</g>
		<path class="st2" d="M75.8,812.8l3.2,13.1l13.1,3.2c1.9,0.5,1.9,3.2,0,3.7l-13.1,3.2l-3.2,13.1c-0.5,1.9-3.2,1.9-3.7,0l-3.2-13.1
			l-13.1-3.2c-1.9-0.5-1.9-3.2,0-3.7l13.1-3.2l3.2-13.1C72.5,810.8,75.3,810.8,75.8,812.8z"/>
		<path class="st2" d="M271.2,990.6l2,8.3l8.3,2c1.2,0.3,1.2,2,0,2.3l-8.3,2l-2,8.3c-0.3,1.2-2,1.2-2.3,0l-2-8.3l-8.3-2
			c-1.2-0.3-1.2-2,0-2.3l8.3-2l2-8.3C269.1,989.4,270.9,989.4,271.2,990.6z"/>
		<g>
			<g>
				<g>
					<path class="st0" d="M258.5,886.7c-0.1,13.2-8.4,25.5-21,30c-12.7,4.6-27,0.6-35.6-9.7c-8.5-10.3-9.6-25.3-2.7-36.7
						c6.9-11.4,20.5-17.4,33.5-14.8c13,2.6,23.1,13.2,25.3,26.2C258.4,883.3,258.5,885,258.5,886.7c0,2.2,3.4,2.2,3.4,0
						c-0.1-14.7-9.4-28-23.1-33.1c-13.8-5.1-29.9-0.7-39.3,10.6c-9.4,11.4-10.8,28-3.1,40.7c7.6,12.7,22.7,19.3,37.2,16.4
						c14.2-2.8,25.6-14.7,27.9-29c0.3-1.9,0.4-3.7,0.5-5.6C261.9,884.5,258.5,884.5,258.5,886.7z"/>
				</g>
			</g>
			
				<ellipse transform="matrix(0.7071 -0.7071 0.7071 0.7071 -557.7427 412.0209)" class="st3" cx="218.5" cy="879.3" rx="15.1" ry="15.1"/>
			<g>
				<g>
					<path class="st0" d="M248.6,883.9c0.9,8.9-3.4,17.8-11,22.5c-1.9,1.1-0.2,4.1,1.7,2.9c8.6-5.2,13.8-15.4,12.7-25.4
						c-0.1-0.9-0.7-1.7-1.7-1.7C249.4,882.2,248.5,883,248.6,883.9L248.6,883.9z"/>
				</g>
			</g>
		</g>
	</g>
</g>
<g id="TEXTS">
</g>
</svg>
