<?xml version="1.0" encoding="utf-8"?>
<!-- Generator: Adobe Illustrator 25.2.3, SVG Export Plug-In . SVG Version: 6.00 Build 0)  -->
<svg version="1.1" xmlns="http://www.w3.org/2000/svg" xmlns:xlink="http://www.w3.org/1999/xlink" x="0px" y="0px"
	 viewBox="0 0 1000.5 1014.3" style="enable-background:new 0 0 1000.5 1014.3;" xml:space="preserve">
<style type="text/css">
	.st0{fill:#99CCFF;}
	.st1{fill:#4B5560;}
	.st2{fill:#292F36;}
	.st3{fill:#06D6A0;}
	.st4{opacity:0.5;}
	.st5{fill:#FFFFFF;}
	.st6{opacity:0.57;fill:#FFFFFF;}
	.st7{fill:#118AB2;}
	.st8{fill:#FFCC33;}
	.st9{opacity:0.44;fill:#FFFFFF;}
	.st10{fill:#EF476F;}
	.st11{opacity:0.5;fill:#292F36;}
	.st12{fill:none;}
</style>
<g id="BACKGROUND">
</g>
<g id="OBJECTS">
	<g>
		<g>
			<g>
				<path class="st0" d="M1042.5,893.9c10.2-16.6,12.8-36.7,9.9-55.8c-3.1-20.1-12.3-38.9-23.5-55.7c-10.8-16.2-23.6-31.6-39.7-42.7
					c-14.2-9.7-30.8-15.6-47.7-17.9c-33.8-4.4-69.4,6-93.5,30.5c-23,23.4-34.8,57.3-32.1,89.9c1.4,16.6,6.6,33.1,16,46.9
					c9.3,13.7,23.2,25.2,40,27.7c12.7,1.9,32.3-5.5,28.4-21.6c-1.1-4.4-3.8-8.3-6.8-11.6c-3.1-3.6-6.5-6.9-10.1-9.9
					c-7-5.9-14.9-10.7-23.4-14.1c-16.5-6.6-35-7.4-51.6-0.8c-15.4,6.1-28.8,18-34.7,33.8c-5.5,14.7-3.9,32,4.1,45.4
					c3.9,6.6,9.5,12.6,16.4,16.3c7.2,3.9,17.3,5.2,23-2c5.1-6.5,4.1-15.7-0.2-22.3c-4.8-7.3-12.9-12.5-20.7-16.2
					c-15.9-7.7-33.9-9.2-51.3-6.9c-18,2.4-35.4,8.8-51.1,17.7c-16.1,9.1-31.2,20.7-43,35c-5.6,6.9-10.5,14.4-14.2,22.4
					c-0.8,1.8,1.9,3.5,2.7,1.6c7.3-15.9,19-29.3,32.5-40.3c13.5-11,28.8-20,45-26.1c15.8-5.9,32.7-9.3,49.6-8
					c8.2,0.6,16.3,2.3,23.9,5.4c7.7,3.1,15.5,7.5,21.1,13.7c5.3,5.8,8.5,15.3,3,22.1c-6,7.3-16.7,3-22.9-1.5
					c-12.1-8.9-18.2-24.2-18-39c0.2-15.9,8.4-30.4,21-39.9c13-9.8,29.6-14.2,45.8-12.3c17.3,2,33.6,10.7,46,22.8
					c5.6,5.5,13.5,13.4,10.7,22c-2,6.5-9.2,9.8-15.4,10.9c-15.3,2.9-30.8-6.9-40.6-17.7c-10.7-11.7-17.4-26.7-20.5-42.2
					c-6.1-30.3,1.7-63,19.9-87.9c19.3-26.2,50.2-41,82.5-41.8c16-0.4,32.1,2.5,46.8,8.8c16.3,6.9,29.9,18.1,41.4,31.5
					c12.4,14.4,23.3,31,30.6,48.6c7.1,17.3,10.6,36.3,7.2,54.9c-1.6,8.7-4.6,17-9.2,24.5C1038.7,894,1041.4,895.6,1042.5,893.9
					L1042.5,893.9z"/>
			</g>
		</g>
		<g>
			<g>
				<path class="st0" d="M22.8,147.1C10.2,168.8,4,194.8,6.6,219.8c1.3,12.3,4.7,24.5,10.6,35.4c5.2,9.7,12.5,18.1,21.3,24.8
					c16.7,12.7,38.7,19,59.4,15.2c10.4-1.9,20.6-6.5,28.5-13.6c8.3-7.5,15.6-20.5,9.4-31.6c-4.7-8.3-17.2-13.9-24.6-5.6
					c-4.1,4.7-5.4,11.6-5.1,17.7c0.3,5.9,2.1,11.7,4.9,16.9c6.2,11.2,17.2,18.6,29.4,21.8c12.3,3.2,25.4,2.7,37.8,0.2
					c22.1-4.5,42.3-16.4,58.3-32.1c16.4-16.2,28.8-36.6,35.5-58.7c7.4-24.3,7.7-50.5,2.7-75.3c-5.1-25.4-15.8-49.7-30.6-70.9
					c-3.6-5.1-7.4-10.1-11.4-14.8c-1.3-1.6-3.6,0.7-2.2,2.2c16.1,18.9,28.5,41,36.1,64.6c7.6,23.5,10.5,48.7,6.9,73.2
					c-3.2,22.3-12,43.5-25.4,61.6c-12.9,17.4-30.1,31.9-50,40.6c-9.8,4.3-20.2,7.1-30.8,8.1c-12.6,1.2-26,0-37.3-6.1
					c-10.2-5.5-18.1-15.4-20.3-26.9c-1.1-5.6-0.8-12,1.9-17.2c2.3-4.3,6.4-6.7,11.3-5.6c4.5,1.1,8.3,4.4,10.4,8.4
					c2.4,4.7,1.7,10.6-0.4,15.3c-4.4,10.1-14.3,17.3-24.2,21.3c-18.6,7.5-40,4.8-57.5-4.3c-9-4.7-17.1-11.1-23.6-19
					c-7.2-8.8-12.2-19.4-15.2-30.3c-6.3-23.3-3.6-48.5,5.3-70.8c2.2-5.4,4.8-10.6,7.7-15.7C26.6,147,23.9,145.4,22.8,147.1
					L22.8,147.1z"/>
			</g>
		</g>
		<g>
			<path class="st1" d="M434.4,238.7c0,0,122.5,21.4,217.4,0c0,0-20.9,89.7-116.5,91.7C439.7,332.4,434.4,238.7,434.4,238.7z"/>
			<g>
				<g>
					<path class="st2" d="M546.2,193.7c-0.5-0.7-0.9-1.4-1.3-2.1c-0.2-0.4-0.4-0.8-0.6-1.2c-0.1-0.2-0.1-0.3-0.2-0.5
						c0,0-0.4-1-0.2-0.4c-0.3-0.8-0.6-1.6-0.8-2.4c-0.1-0.4-0.2-0.8-0.3-1.1c0-0.2-0.1-0.4-0.1-0.6c0-0.1-0.2-1-0.1-0.5
						c0,0.3-0.1-0.7-0.1-0.8c0-0.4,0-0.9,0-1.3c0-0.4,0-0.9,0.1-1.3c0,0,0.1-0.6,0-0.2c-0.1,0.5,0.1-0.4,0.1-0.5
						c0.2-0.8,0.4-1.5,0.6-2.3c0.2-0.5-0.2,0.5,0,0c0.1-0.2,0.2-0.4,0.3-0.6c0.2-0.4,0.5-0.8,0.8-1.2c0.1-0.1,0.4-0.5,0-0.1
						c0.1-0.1,0.2-0.3,0.3-0.4c0.3-0.3,0.6-0.7,1-1c0.1-0.1,0.9-0.7,0.5-0.5c0.5-0.3,1-0.6,1.5-0.9c0.9-0.5,1-0.5,2.1-0.8
						c0.5-0.1,1-0.2,1.5-0.3c-0.1,0-0.4,0,0,0c0.3,0,0.6,0,0.9-0.1c0.5,0,1,0,1.5,0c0.1,0,0.7,0.1,0.2,0c0.2,0,0.4,0.1,0.6,0.1
						c0.5,0.1,1,0.2,1.5,0.4c0.2,0.1,0.4,0.1,0.5,0.2c0,0,1,0.4,0.6,0.2c0.9,0.4,1.7,0.9,2.5,1.4c0.2,0.1,0.3,0.2,0.4,0.3
						c-0.4-0.3,0,0,0.1,0.1c0.4,0.3,0.8,0.7,1.1,1c0.3,0.3,0.6,0.6,0.8,0.9c0.1,0.1,0.9,1.1,0.5,0.6c0.5,0.7,1,1.4,1.4,2.2
						c0.2,0.4,0.4,0.8,0.6,1.2c-0.3-0.6,0.1,0.3,0.2,0.5c0.3,0.9,0.6,1.7,0.7,2.6c0.1,0.4,0.1,0.7,0.2,1.1c0.1,0.6-0.1-0.5,0,0
						c0,0.2,0,0.4,0.1,0.7c0.1,0.9,0.1,1.8,0.1,2.6c0,0.8-0.1,1.7-0.2,2.5c0.1-0.7-0.1,0.6-0.1,0.7c-0.1,0.4-0.2,0.9-0.3,1.3
						c-0.2,0.9-0.4,1.7-0.7,2.6c-0.1,0.4-0.3,0.7-0.4,1.1c0,0.1-0.3,0.7-0.1,0.4c0.1-0.4-0.2,0.5-0.2,0.5c-0.8,1.8-1.8,3.5-3,5
						c-1,1.4-2.4,3-3.8,4.4c-1.5,1.5-3.2,3-4.9,4.3c-9,7.1-20.2,12.3-30.9,16.9c-0.4,0.2-0.7,0.3-1.1,0.5c-0.2,0.1-0.4,0.2-0.5,0.2
						c0.1-0.1,0.7-0.3,0,0c-0.7,0.3-1.5,0.6-2.2,0.9c-1.4,0.6-2.9,1.2-4.3,1.8c-3,1.2-6,2.4-9,3.6c-6.2,2.4-12.4,4.7-18.6,7
						c-12,4.4-24,8.8-35.8,13.6c-9.1,3.7-18.6,7.6-26.8,13.1c-4.7,3.1-11.4,8.5-9.6,15.1c1.1,3.9,5,6.3,8.4,7.9
						c5.4,2.5,11.2,4,16.9,5.3c7.7,1.8,15.6,3,23.4,4.2c9.7,1.4,19.4,2.5,29.2,3.5c10.5,1,21,1.9,31.6,2.6c10.8,0.8,21.6,1.4,32.4,2
						c10.3,0.5,20.7,1,31,1.3c9.3,0.3,18.5,0.6,27.8,0.7c7.4,0.1,14.8,0.2,22.2,0.2c4.8,0,9.7,0,14.5-0.3c1.6-0.1,3.1-0.2,4.6-0.4
						c1.9-0.3,3.8-0.7,5.7-1.1c2-0.5,4.2-1.1,6-2.2c3-1.8,5.1-4.9,5.7-8.4c0.6-3.8-0.3-7.5-2.8-10.4c-1.3-1.6-3.1-2.6-4.8-3.7
						c-2.1-1.4-4.3-2.7-6.4-4.1c-8.6-5.6-17.3-11.2-25.9-16.8c-17.1-11.2-34.1-22.6-51-34.2c-8.1-5.6-16.3-11.2-24.4-16.8
						c-1.6-1.1-3.9-0.3-4.8,1.3c-1,1.8-0.3,3.7,1.3,4.8c16.7,11.7,33.6,23.2,50.5,34.5c17,11.4,34.1,22.6,51.4,33.7
						c2.1,1.4,4.3,2.7,6.4,4.1c0.5,0.3,1,0.6,1.5,1c0.1,0.1,0.5,0.4,0,0c0.1,0.1,0.2,0.2,0.3,0.3c0.3,0.3,0.5,0.5,0.8,0.8
						c0.3,0.3-0.1-0.1-0.1-0.2c0.2,0.2,0.3,0.5,0.4,0.7c0.1,0.1,0.5,1,0.3,0.6c-0.2-0.4,0.1,0.5,0.2,0.6c0.1,0.3,0.2,0.7,0.2,1
						c-0.2-0.8,0,0.2,0,0.5c0,0.3,0,0.6,0,0.9c0-0.9,0,0.1-0.1,0.4c-0.1,0.3-0.2,0.6-0.3,0.9c-0.1,0.5,0.3-0.5,0.1-0.1
						c-0.1,0.2-0.2,0.4-0.3,0.6c-0.2,0.3-0.4,0.6-0.6,0.9c0.4-0.6,0,0-0.2,0.2c-0.2,0.2-0.5,0.4-0.7,0.6c0.6-0.5-0.4,0.2-0.6,0.3
						c-0.1,0.1-0.6,0.3-0.2,0.1c0.4-0.2-0.2,0.1-0.3,0.1c-0.5,0.2-1,0.3-1.5,0.5c-1.2,0.4-2.5,0.7-3.8,0.9c-1.3,0.3-2.7,0.5-4.1,0.7
						c1.1-0.2,0.8-0.1,0.2,0c-3.8,0.4-7.7,0.4-11.5,0.4c-6.6,0.1-13.2,0.1-19.8,0c-8.7-0.1-17.4-0.3-26.1-0.5
						c-10.1-0.3-20.1-0.7-30.1-1.1c-10.8-0.5-21.5-1.1-32.2-1.7c-10.7-0.7-21.3-1.5-32-2.4c-9.9-0.9-19.9-1.9-29.8-3.1
						c-1.1-0.1-2.3-0.3-3.4-0.4c-0.3,0-0.5-0.1-0.8-0.1c-1-0.1,0.4,0.1-0.1,0c-0.6-0.1-1.1-0.2-1.7-0.2c-2.2-0.3-4.4-0.6-6.5-1
						c-4-0.6-8-1.3-11.9-2c-6.3-1.2-12.6-2.6-18.7-4.7c-0.6-0.2-1.2-0.4-1.8-0.7c-0.2-0.1-0.5-0.2-0.7-0.3c-0.1-0.1-0.3-0.1-0.4-0.2
						c-0.5-0.2,1,0.4,0.3,0.1c-0.9-0.4-1.9-0.9-2.8-1.4c-0.4-0.2-0.8-0.5-1.2-0.7c-0.2-0.1-0.3-0.2-0.5-0.3
						c-0.1-0.1-0.1-0.1-0.2-0.2c-0.5-0.3,0.2,0.2,0.4,0.3c-0.5-0.5-1-1-1.5-1.5c0.1,0.1,0.6,0.9,0.2,0.3c-0.1-0.1-0.2-0.3-0.2-0.4
						c-0.1-0.2-0.3-0.7,0,0c0.3,0.8,0.1,0.2,0,0c0-0.1,0-0.3-0.1-0.4c-0.1-0.2,0,1.2,0.1,0.4c0-0.2,0-0.5,0-0.7c0-0.4-0.2,1-0.1,0.5
						c0-0.1,0.1-0.3,0.1-0.4c0.1-0.2,0.2-0.5,0.2-0.7c0.1-0.5-0.4,0.8-0.2,0.4c0.1-0.1,0.1-0.3,0.2-0.4c0.2-0.4,0.9-1.1,0.9-1.5
						c-0.1,0.5-0.6,0.7-0.2,0.2c0.1-0.1,0.2-0.2,0.3-0.3c0.2-0.3,0.5-0.6,0.8-0.8c0.5-0.5,1.1-1,1.7-1.5c0.3-0.2,0.6-0.6,0.9-0.7
						c0,0-0.8,0.6-0.3,0.3c0.1-0.1,0.2-0.1,0.3-0.2c0.2-0.1,0.4-0.3,0.5-0.4c0.8-0.6,1.6-1.1,2.4-1.6c1.8-1.1,3.6-2.2,5.4-3.1
						c4.4-2.4,9-4.5,13.7-6.5c0.3-0.1,0.7-0.3,1-0.4c0.3-0.1,0.9-0.4,0.3-0.1c0.7-0.3,1.3-0.6,2-0.8c1.4-0.6,2.8-1.1,4.2-1.7
						c2.8-1.1,5.6-2.2,8.5-3.3c6.1-2.3,12.2-4.6,18.3-6.9c12.3-4.5,24.6-9,36.7-14c10.3-4.2,20.7-8.6,30.3-14.5
						c7.5-4.7,14.7-10.1,19.6-17.6c4.3-6.5,6.1-14.3,4.9-22c-1.3-7.9-7-14.9-14.8-17.1c-8.6-2.4-17.9,1.9-21.1,10.3
						c-2.5,6.8-0.3,14.8,3.7,20.6c1.1,1.6,3.1,2.3,4.8,1.3C546.5,197.6,547.3,195.2,546.2,193.7L546.2,193.7z"/>
				</g>
			</g>
			<path class="st3" d="M543,274.6v308.9c0,0,105.2,3.4,149.2-28l-40.4-192L728.9,518c0,0,45.8-1.8,62.8-25.1
				c0,0-94.5-240-139.9-254.1C651.8,238.7,620,274.6,543,274.6z"/>
			<path class="st3" d="M543.2,274.6v308.9c0,0-105.2,3.4-149.2-28l40.4-192L357.3,518c0,0-45.8-1.8-62.8-25.1
				c0,0,94.5-240,139.9-254.1C434.4,238.7,466.2,274.6,543.2,274.6z"/>
			<g class="st4">
				<path class="st2" d="M574.7,524.5c-10.5,2-21.2,3.1-31.7,3.2v55.8c0,0,105.2,3.4,149.2-28l-19.2-91.5
					C648.9,495.1,614.2,517.1,574.7,524.5z"/>
				<path class="st2" d="M410.6,476.5l-16.6,79c44,31.4,149.2,28,149.2,28v-55.8C494.5,528.3,446.5,509.2,410.6,476.5z"/>
			</g>
			
				<ellipse transform="matrix(0.7071 -0.7071 0.7071 0.7071 -105.7881 494.104)" class="st5" cx="543.5" cy="374.7" rx="49.1" ry="49.1"/>
			<g>
				<g>
					<path class="st2" d="M440.2,322.8c-4.4,19.3-8.7,38.6-12.8,57.9c-4.1,19.3-8,38.6-11.7,57.9c-2.1,10.9-4.2,21.8-6.2,32.8
						c-0.2,1.3,0.3,2.5,1.6,2.9c1.1,0.3,2.7-0.4,2.9-1.6c3.6-19.4,7.3-38.9,11.2-58.2c3.9-19.3,7.9-38.6,12.2-57.8
						c2.4-10.9,4.8-21.7,7.3-32.6C445.4,321.1,440.9,319.8,440.2,322.8L440.2,322.8z"/>
				</g>
			</g>
			<g>
				<g>
					<path class="st2" d="M640.9,324c4.4,19.3,8.7,38.6,12.8,57.9c4.1,19.3,8,38.6,11.7,57.9c2.1,10.9,4.2,21.8,6.2,32.8
						c0.2,1.3,1.8,2,2.9,1.6c1.3-0.4,1.9-1.6,1.6-2.9c-3.6-19.4-7.3-38.9-11.2-58.2c-3.9-19.3-7.9-38.6-12.2-57.8
						c-2.4-10.9-4.8-21.7-7.3-32.6C644.8,319.8,640.2,321.1,640.9,324L640.9,324z"/>
				</g>
			</g>
			<g>
				<g>
					<path class="st2" d="M652.6,256.4c-13.2,10.1-28,18.1-43.6,23.9c-15.2,5.7-31.1,9.4-47.2,11.1c-15.7,1.7-31.7,1.6-47.4-0.3
						c-14.4-1.8-28.7-5.2-42.2-10.6c-11.8-4.6-23.4-11-32.9-19.2c-1.1-1-2.2-2-3.3-3c-2.2-2.1-5.5,1.2-3.3,3.3
						c9.5,9,20.9,16,32.9,21.2c13.5,5.9,27.8,9.8,42.3,12.1c15.9,2.5,32,3.1,48,1.8c16.5-1.3,32.9-4.5,48.6-9.8
						c16.1-5.4,31.5-13,45.5-22.8c1.7-1.2,3.4-2.4,5-3.7c1-0.8,1.5-2,0.8-3.2C655.3,256.2,653.7,255.6,652.6,256.4L652.6,256.4z"/>
				</g>
			</g>
			<g>
				<g>
					<path class="st2" d="M465.2,265.8c-1.7,4.1-3.3,8.3-4.8,12.5c-0.4,1.2,0.5,2.6,1.6,2.9c1.3,0.3,2.5-0.4,2.9-1.6
						c1.5-4.2,3.1-8.4,4.8-12.5c0.5-1.1-0.5-2.6-1.6-2.9C466.7,263.9,465.7,264.6,465.2,265.8L465.2,265.8z"/>
				</g>
			</g>
			<g>
				<g>
					<path class="st2" d="M614.2,264.8c1.7,4.1,3.3,8.3,4.8,12.5c0.4,1.2,1.6,2.1,2.9,1.6c1.1-0.4,2.1-1.7,1.6-2.9
						c-1.5-4.2-3.1-8.4-4.8-12.5c-0.5-1.1-1.6-2.1-2.9-1.6C614.8,262.3,613.7,263.6,614.2,264.8L614.2,264.8z"/>
				</g>
			</g>
			<g>
				<g>
					<path class="st2" d="M541.9,277.4c-0.7,5.9-0.6,11.7,0.1,17.6c0.2,1.3,1,2.4,2.4,2.4c1.2,0,2.5-1.1,2.4-2.4
						c-0.7-5.9-0.8-11.7-0.1-17.6c0.1-1.3-1.2-2.4-2.4-2.4C542.9,275.1,542.1,276.1,541.9,277.4L541.9,277.4z"/>
				</g>
			</g>
		</g>
		<g>
			<g>
				<path class="st2" d="M1294.4,522.2c-74.6-2.5-149-11.2-222.3-25.9c-72.8-14.6-144.4-35.1-214-61c-69.8-26-137.5-57.4-202.4-93.9
					c-64.8-36.5-126.9-78.1-185.2-124.3c-58.2-46.2-112.6-97-162.5-152c-6.1-6.7-12.1-13.5-18.1-20.4c-1.1-1.3-3,0.6-1.9,1.9
					C337.2,103,391,155.3,448.8,202.8c57.4,47.3,118.6,90,182.7,127.7c64.2,37.7,131.3,70.3,200.5,97.6
					c69.6,27.4,141.3,49.4,214.4,65.4c72.6,16,146.6,26.1,220.8,30.1c9.1,0.5,18.2,0.9,27.2,1.2
					C1296.1,524.9,1296.1,522.2,1294.4,522.2L1294.4,522.2z"/>
			</g>
		</g>
		<g>
			<path class="st6" d="M965.7,437.5c6.4-52.5-26.4-102.4-77.6-116c-1.2-0.3-2.4-0.6-3.7-0.9c0,0-24.8,10.4-51.6,4.2
				c-26.7-6.3-44.4-26.6-44.4-26.6c-1.2-0.3-2.5-0.5-3.7-0.8C733,287,681.5,317.2,664,367.1L535.9,732.4c8,5.8,17.5,11.8,27.8,17.9
				c97.2,57.2,209.8,83.4,322.3,75.2c12-0.9,23.2-2.1,32.9-3.8L965.7,437.5z"/>
			<g>
				<g>
					<g>
						<path class="st2" d="M832.3,273.3c-0.2-0.4-0.4-0.8-0.6-1.1c-0.1-0.1-0.3-0.6,0,0c-0.1-0.1-0.1-0.3-0.2-0.4
							c-0.3-0.9-0.6-1.7-0.8-2.6c-0.2-0.7-0.3-1.5-0.5-2.2c0.1,0.7,0-0.4-0.1-0.7c0-0.5-0.1-1-0.1-1.4c0-0.8,0-1.6,0.1-2.4
							c-0.1,0.8,0.1-0.4,0.1-0.6c0.1-0.4,0.2-0.8,0.3-1.2c0.1-0.4,0.3-0.8,0.4-1.2c-0.2,0.6,0.1-0.2,0.2-0.4
							c0.2-0.4,0.4-0.7,0.6-1.1c0.1-0.1,0.2-0.3,0.3-0.4c0.5-0.8-0.4,0.4,0.2-0.3c2.2-2.4,4.8-3.7,8.1-3.6c0.2,0,0.5,0,0.7,0
							c0.1,0,0.7,0.1,0.2,0c0.4,0.1,0.8,0.2,1.3,0.3c1.1,0.3,1.7,0.5,2.5,0.9c1.8,0.9,2.8,1.7,4.1,3.2c0.6,0.7,0.7,0.7,1.2,1.7
							c0.2,0.3,0.4,0.7,0.6,1c0.1,0.2,0.2,0.4,0.3,0.6c0.1,0.2,0.3,0.7,0.1,0.2c0.3,0.8,0.6,1.6,0.8,2.4c0.1,0.4,0.2,0.9,0.3,1.3
							c0,0.2,0.1,0.3,0.1,0.5c-0.1-0.7,0,0.3,0,0.4c0.1,0.8,0.1,1.6,0.1,2.4c0,0.5,0,0.9-0.1,1.4c0,0.2,0,0.5-0.1,0.7
							c-0.1,0.7,0-0.1,0,0.3c-0.3,1.8-0.7,3.5-1.4,5.2c-0.1,0.2-0.2,0.4-0.3,0.7c0.1-0.1,0.2-0.5-0.1,0.1c-0.2,0.4-0.3,0.7-0.5,1.1
							c-0.4,0.8-0.9,1.6-1.4,2.4c-1.1,1.7-2.1,2.9-3.5,4.4c-2.9,3-5.9,5.2-9.6,7.3c-3.3,2-6.8,3.6-10.4,5.1c0.7-0.3,0.2-0.1-0.2,0.1
							c-0.2,0.1-0.5,0.2-0.7,0.3c-0.6,0.2-1.1,0.5-1.7,0.7c-1.2,0.4-2.3,0.9-3.5,1.3c-5.3,1.9-10.7,3.5-16.1,4.9
							c-12.3,3.4-24.7,6.1-37.2,8.8c-12.4,2.7-24.8,5.3-37.1,8.4c-9.7,2.4-19.6,5.1-28.7,9.3c-5.1,2.4-12.2,6.5-12.1,13
							c0.1,4.3,3.8,7.4,7.1,9.6c4.8,3.2,10.3,5.4,15.7,7.5c7.3,2.8,14.9,5.2,22.4,7.4c9.2,2.7,18.4,5.1,27.6,7.3
							c10.2,2.5,20.5,4.8,30.8,7c10.6,2.3,21.3,4.4,32,6.5c10.3,2,20.6,3.9,30.9,5.7c9.2,1.6,18.3,3.1,27.5,4.6
							c7.4,1.2,14.8,2.3,22.2,3.3c5.1,0.7,10.3,1.4,15.5,1.9c1.3,0.1,2.6,0.2,3.9,0.2c1.8,0,3.6-0.1,5.4-0.3
							c2.2-0.2,4.6-0.4,6.6-1.2c3.6-1.4,6.2-4.2,7.4-7.9c1.1-3.3,0.6-7.1-1.1-10.1c-1.1-1.9-2.7-3.2-4.3-4.6
							c-1.9-1.6-3.8-3.3-5.8-4.9c-7.7-6.6-15.4-13.3-23.1-20.1c-15.4-13.5-30.7-27.1-45.8-40.9c-7.3-6.6-14.6-13.3-21.8-20
							c-1.4-1.3-3.6-1.4-5,0c-1.3,1.3-1.4,3.7,0,5c15,13.9,30,27.6,45.3,41.2c15.3,13.6,30.7,27.1,46.2,40.5
							c1.9,1.6,3.8,3.3,5.8,4.9c0.7,0.6,1.4,1.2,2.1,1.9c0.4,0.4-0.3-0.4,0,0c0.1,0.2,0.2,0.3,0.3,0.5c0.1,0.2,0.6,1.3,0.3,0.5
							c0.2,0.6,0.4,1.2,0.5,1.9c-0.2-0.9,0,0.1,0,0.4c0,0.2,0,0.4,0,0.5c0,0.1-0.1,0.9,0,0.3c0.1-0.5-0.1,0.4-0.1,0.6
							c-0.1,0.3-0.2,0.7-0.3,1c0.2-0.7,0,0-0.2,0.3c-0.1,0.2-0.8,1.1-0.3,0.5c-0.2,0.3-0.5,0.6-0.7,0.8c-0.1,0.1-0.2,0.2-0.3,0.3
							c-0.3,0.4,0.5-0.3,0.1,0c-0.3,0.2-0.5,0.4-0.8,0.5c-0.2,0.1-0.3,0.2-0.5,0.3c0.7-0.3,0.1,0-0.1,0c-2.1,0.6-4.2,0.8-6.4,0.9
							c-1.4,0.1-2.8,0.2-4.2,0.1c-3.9-0.2-7.8-0.7-11.7-1.2c-0.7-0.1-1.4-0.2-2.1-0.3c-0.3,0-0.7-0.1-1-0.1c-0.5-0.1-1.5-0.2-0.3,0
							c-1.6-0.2-3.2-0.4-4.8-0.7c-3.6-0.5-7.2-1-10.8-1.6c-8.7-1.3-17.3-2.7-26-4.2c-10-1.7-20-3.5-29.9-5.3
							c-10.6-2-21.3-4.1-31.9-6.2c-10.5-2.2-21-4.4-31.4-6.8c-9.7-2.3-19.4-4.6-29-7.3c-8.2-2.2-16.3-4.6-24.3-7.4
							c-3.3-1.1-6.5-2.3-9.8-3.7c-0.2-0.1-0.3-0.1-0.5-0.2c-0.6-0.2-0.3-0.2,0.2,0.1c-0.3-0.2-0.7-0.3-1.1-0.5
							c-0.7-0.3-1.4-0.6-2.1-0.9c-1.2-0.6-2.4-1.2-3.6-1.8c-1.1-0.6-2.1-1.1-3.1-1.8c-0.4-0.3-0.9-0.6-1.3-0.9
							c-0.2-0.1-0.4-0.3-0.6-0.4c-0.7-0.5,0.8,0.6,0.1,0.1c-0.7-0.5-1.3-1.1-1.9-1.7c-0.1-0.1-0.2-0.3-0.3-0.4
							c-0.1-0.1,0.6,0.9,0.2,0.2c-0.2-0.3-0.3-0.6-0.5-0.8c-0.4-0.6,0.3,0.9,0.1,0.4c0-0.1-0.1-0.3-0.1-0.4c0-0.1,0-0.3-0.1-0.4
							c-0.1-0.2,0,1.2,0.1,0.5c0-0.1,0-0.3,0-0.4c0-0.6-0.2,0.8-0.1,0.5c0-0.1,0-0.2,0.1-0.4c0.1-0.2,0.2-0.5,0.2-0.7
							c0.1-0.4-0.5,0.9-0.2,0.4c0.1-0.1,0.1-0.3,0.2-0.4c0.1-0.2,0.3-0.4,0.4-0.7c0.5-0.8-0.6,0.7,0-0.1c0.4-0.5,0.8-0.9,1.3-1.3
							c0.2-0.2,0.5-0.4,0.7-0.6c0.1-0.1-0.8,0.6-0.2,0.1c0.2-0.1,0.3-0.2,0.5-0.4c0.6-0.4,1.3-0.9,2-1.2c1.6-0.9,3.2-1.7,4.9-2.4
							c0.2-0.1,0.4-0.2,0.6-0.3c0.1,0-0.7,0.3,0,0c0.5-0.2,1.1-0.4,1.6-0.6c1-0.4,2-0.8,3.1-1.1c4.8-1.7,9.7-3.1,14.6-4.4
							c11.9-3.2,24-5.8,36.1-8.5c12.6-2.8,25.3-5.5,37.8-8.7c10.7-2.7,21.4-5.8,31.5-10.2c7.9-3.5,15.7-7.9,21.4-14.5
							c5.1-5.9,8.4-13.8,7.8-21.7c-0.6-8.5-5.8-16.3-14.1-19.1c-7.9-2.7-17.3,0.8-20.8,8.5c-3.1,6.7-2,14.4,1.3,20.8
							c0.9,1.7,3.3,2.2,4.8,1.3C832.8,277.1,833.2,275,832.3,273.3L832.3,273.3z"/>
					</g>
				</g>
				<path class="st7" d="M927.6,404.7c0,0-39.8,4-116.4-10.4c-76.2-16.3-111.4-35.4-111.4-35.4L576.1,743.8l82.4,16.6l122.2-276.3
					l23.8,4.8l5.9,302.1l82.4,16.6L927.6,404.7z"/>
				<path class="st8" d="M742.7,388.6L743,366c0.1-3.8,3.2-6.9,7.1-6.8c4,0.1,9.1,0.6,13.4,1.9c3.4,1.1,5.3,4.8,4.4,8.2l-5.8,22.2
					c-0.9,3.5-4.3,5.7-7.9,5l-5.9-1.1C745,394.9,742.6,392,742.7,388.6z"/>
				<path class="st8" d="M875.3,412.4l7.6-21.3c1.3-3.6-0.6-7.6-4.3-8.8c-3.8-1.3-8.7-2.6-13.2-2.9c-3.6-0.2-6.7,2.6-7,6.2
					l-2.3,22.8c-0.4,3.6,2.1,6.8,5.6,7.5l5.9,1.1C870.9,417.5,874.2,415.6,875.3,412.4z"/>
				<g>
					<g>
						<path class="st2" d="M769.6,482.7c15,7.1,31.9,9.9,48.3,7.7c1.3-0.2,2.4-1,2.4-2.4c0-1.1-1.1-2.5-2.4-2.4
							c-15.6,2.1-31.7-0.3-45.9-7c-1.2-0.5-2.5-0.3-3.2,0.8C768.2,480.5,768.5,482.2,769.6,482.7L769.6,482.7z"/>
					</g>
				</g>
				<g>
					<g>
						<path class="st2" d="M812.3,396.9c-3.3,19.4-7.2,38.6-11.7,57.8c-1.3,5.4-2.6,10.8-4,16.2c-0.8,2.9,3.8,4.2,4.6,1.3
							c4.9-19,9.1-38.2,12.7-57.5c1-5.5,2-11,2.9-16.4c0.2-1.3-0.3-2.5-1.6-2.9C814.1,395,812.5,395.7,812.3,396.9L812.3,396.9z"/>
					</g>
				</g>
				<g>
					<g>
						<path class="st2" d="M803.5,401.9c0.1,0,0.2,0.1,0.2,0.1c-0.2-0.1-0.3-0.2-0.5-0.4C803.4,401.8,803.5,401.9,803.5,401.9
							c-0.1-0.1-0.2-0.3-0.3-0.4c0.1,0.1,0.2,0.2,0.2,0.4c-0.1-0.2-0.2-0.4-0.2-0.6c0.1,0.2,0.1,0.3,0.1,0.5c0-0.2-0.1-0.4-0.1-0.6
							c0,0.2,0,0.3,0,0.5c0-0.2,0.1-0.4,0.1-0.6c0,0.1-0.1,0.3-0.1,0.4c0.1-0.2,0.2-0.4,0.2-0.6c-0.1,0.1-0.1,0.2-0.2,0.3
							c0.1-0.2,0.2-0.3,0.4-0.5c-0.1,0.1-0.1,0.2-0.2,0.2c0.2-0.1,0.3-0.2,0.5-0.4c-0.1,0.1-0.2,0.1-0.3,0.2
							c0.2-0.1,0.4-0.2,0.6-0.2c-0.1,0-0.3,0.1-0.4,0.1c0.2,0,0.4-0.1,0.6-0.1c-0.1,0-0.3,0-0.4,0c0.2,0,0.4,0.1,0.6,0.1
							c-0.2,0-0.3-0.1-0.5-0.1c0.2,0.1,0.4,0.2,0.6,0.2c-0.1-0.1-0.3-0.1-0.4-0.2c0.2,0.1,0.3,0.2,0.5,0.4c-0.1-0.1-0.2-0.2-0.3-0.3
							c0.1,0.2,0.2,0.3,0.4,0.5c-0.1-0.1-0.1-0.2-0.2-0.3c0.1,0.2,0.2,0.4,0.2,0.6c0-0.1-0.1-0.2-0.1-0.3c0,0.2,0.1,0.4,0.1,0.6
							c0-0.1,0-0.2,0-0.3c0,0.2-0.1,0.4-0.1,0.6c0-0.1,0.1-0.3,0.1-0.4c-0.1,0.2-0.2,0.4-0.2,0.6c0.1-0.1,0.1-0.3,0.2-0.4
							c-0.1,0.2-0.2,0.3-0.4,0.5c0.1-0.1,0.2-0.2,0.3-0.3c-0.2,0.1-0.3,0.2-0.5,0.4c0.1-0.1,0.3-0.2,0.4-0.2
							c-0.2,0.1-0.4,0.2-0.6,0.2c0.1-0.1,0.3-0.1,0.4-0.1c-0.2,0-0.4,0.1-0.6,0.1c0.1,0,0.2,0,0.3,0c-0.2,0-0.4-0.1-0.6-0.1
							c0.1,0,0.3,0.1,0.4,0.1C803.8,402,803.6,402,803.5,401.9c0,0,0.2,0.1,0.3,0.2c-0.2-0.1-0.3-0.2-0.5-0.4
							c0.1,0.1,0.2,0.2,0.3,0.3c-0.1-0.2-0.2-0.3-0.4-0.5C803.3,401.7,803.4,401.8,803.5,401.9c-0.1-0.2-0.2-0.4-0.3-0.6
							c0.1,0.1,0.1,0.3,0.1,0.4c0-0.2-0.1-0.4-0.1-0.6c0,0.1,0,0.2,0,0.3c0-0.2,0.1-0.4,0.1-0.6c0,0.1-0.1,0.3-0.1,0.4
							c0.1-0.2,0.2-0.4,0.2-0.6c-0.1,0.1-0.1,0.3-0.2,0.4c0.1-0.2,0.2-0.3,0.4-0.5c-0.1,0.1-0.2,0.2-0.3,0.3
							c0.2-0.1,0.3-0.2,0.5-0.4c-0.1,0.1-0.2,0.1-0.3,0.2c0.2-0.1,0.4-0.2,0.6-0.2c-0.1,0.1-0.3,0.1-0.4,0.1c0.2,0,0.4-0.1,0.6-0.1
							c-0.1,0-0.2,0-0.3,0c-0.3,0-0.6,0.1-0.9,0.2c-0.3,0.1-0.5,0.3-0.8,0.5c-0.2,0.2-0.4,0.5-0.5,0.8c-0.1,0.3-0.2,0.6-0.2,0.9
							c0,0.6,0.2,1.2,0.7,1.7c0.5,0.4,1,0.7,1.7,0.7c0.7,0,1.3-0.2,1.9-0.5c0.5-0.3,0.9-0.6,1.3-1.1c0.3-0.4,0.6-0.9,0.7-1.5
							c0.1-0.7,0.2-1.4-0.1-2c-0.1-0.3-0.2-0.6-0.4-0.9c-0.1-0.1-0.2-0.3-0.3-0.4c-0.1-0.1-0.2-0.3-0.3-0.4c-0.5-0.5-1-0.8-1.7-1
							c-0.6-0.2-1.3-0.2-2,0c-0.4,0.1-0.9,0.3-1.2,0.6c-0.5,0.4-1,0.8-1.3,1.4c-0.2,0.3-0.3,0.6-0.4,0.9c-0.1,0.3-0.1,0.7-0.2,1
							c0,0.1,0,0.1,0,0.2c0,0.3,0.1,0.5,0.1,0.8c0.1,0.3,0.2,0.6,0.3,0.9c0.2,0.4,0.5,0.7,0.8,1c0.5,0.4,0.9,0.7,1.6,0.9
							c0.1,0,0.2,0.1,0.3,0.1c0.3,0,0.6,0.1,1,0.1c0.7,0,1.2-0.2,1.8-0.5c0.6-0.3,1-0.7,1.3-1.2c0.1-0.1,0.1-0.2,0.2-0.3
							c0.1-0.3,0.3-0.6,0.3-0.9c0.1-0.7,0.1-1.3,0-2c0-0.2-0.1-0.4-0.2-0.6c-0.1-0.2-0.2-0.4-0.3-0.6c-0.4-0.5-0.8-1-1.4-1.3
							c-0.3-0.2-0.6-0.3-0.9-0.3c-0.3-0.1-0.6-0.1-0.9,0c-0.3,0.1-0.6,0.2-0.8,0.4c-0.3,0.2-0.5,0.4-0.6,0.7
							c-0.3,0.5-0.4,1.2-0.2,1.8C802.6,401.1,803,401.7,803.5,401.9L803.5,401.9z"/>
					</g>
				</g>
				<g>
					<g>
						<path class="st2" d="M736.3,376.8c-7.4,23.3-15.2,51.5-39.5,62.5c-6.1,2.8-13.1,4-19.7,3.1c-1.3-0.2-2.5,0.3-2.9,1.6
							c-0.3,1.1,0.4,2.7,1.6,2.9c13.3,1.9,26.5-3.3,36.3-12.2c9.9-9,16.3-21.1,21-33.5c2.9-7.6,5.3-15.5,7.7-23.2
							C741.8,375.1,737.3,373.9,736.3,376.8L736.3,376.8z"/>
					</g>
				</g>
				<g>
					<g>
						<path class="st2" d="M778.5,483.5c-10.7,23.9-21.5,47.8-32.2,71.8c-3.1,6.8-6.1,13.7-9.2,20.5c-0.5,1.2-0.3,2.5,0.8,3.2
							c1,0.6,2.7,0.3,3.2-0.8c10.7-24,21.5-47.9,32.2-71.9c3-6.8,6.1-13.6,9.1-20.3c0.5-1.2,0.3-2.5-0.8-3.2
							C780.7,482.1,779,482.3,778.5,483.5L778.5,483.5z"/>
					</g>
				</g>
				<g>
					<g>
						<path class="st2" d="M883.5,407c-1.4,14.7-3.3,29.5-1.2,44.2c1.8,12.8,6.7,25.4,16.3,34.5c4.9,4.6,10.8,8.1,17.3,9.9
							c2.9,0.8,4.2-3.8,1.3-4.6c-10.8-2.9-19.2-11.1-24.2-20.8c-6.1-11.9-7.2-25.6-6.7-38.7c0.3-8.2,1.3-16.3,2.1-24.5
							c0.1-1.3-1.2-2.4-2.4-2.4C884.4,404.7,883.6,405.8,883.5,407L883.5,407z"/>
					</g>
				</g>
				<g>
					<g>
						<path class="st2" d="M802.7,489.1c0.4,26.2,0.9,52.4,1.3,78.6c0.1,7.5,0.3,15,0.4,22.4c0.1,3,4.8,3,4.7,0
							c-0.4-26.3-0.9-52.5-1.3-78.8c-0.1-7.4-0.2-14.9-0.4-22.3C807.3,486.1,802.6,486.1,802.7,489.1L802.7,489.1z"/>
					</g>
				</g>
			</g>
			<path class="st9" d="M965.7,437.5c6.4-52.5-26.4-102.4-77.6-116c-1.2-0.3-2.4-0.6-3.7-0.9c0,0-24.8,10.4-51.6,4.2
				c-26.7-6.3-44.4-26.6-44.4-26.6c-1.2-0.3-2.5-0.5-3.7-0.8C733,287,681.5,317.2,664,367.1L535.9,732.4c8,5.8,17.5,11.8,27.8,17.9
				c97.2,57.2,209.8,83.4,322.3,75.2c12-0.9,23.2-2.1,32.9-3.8L965.7,437.5z"/>
		</g>
		<g>
			<path class="st7" d="M300.9,65.6c0,0,108.6,48.3,147.6,79.1C448.5,144.7,337.1,150.6,300.9,65.6z"/>
			<path class="st10" d="M448.5,144.7c-94-28.4-129.2-68.7-147.6-79.1c0,0-61.9,67.4-79.2,104.6c0,0,20.4,36.8,81.8,47.2l20.3-29.6
				l5.1,2.6l5,2.8l-13.4,33.3c42.7,45.4,84.6,42,84.6,42C426.6,233.5,448.5,144.7,448.5,144.7z"/>
			<g>
				<g>
					<path class="st2" d="M378.4,118.4c-8.4,15.4-17.1,30.7-25.2,46.2c-2.5,4.7-5,9.5-7.4,14.3c0.6-0.3,1.1-0.6,1.7-1
						c-0.5,0-1,0-1.5,0c-0.1,0-0.3,0-0.4,0c-0.1,0,0.4,0.1-0.1,0c-0.3-0.1-0.6-0.1-0.9-0.2c-0.8-0.2-1.6-0.4-2.4-0.6
						c-5.2-1.7-9.6-5.3-13.4-9.2c-1.7-1.8-4.5,0.9-2.7,2.7c4.3,4.4,9.3,8.3,15.1,10.2c1.5,0.5,3.1,0.9,4.7,1
						c0.7,0.1,1.8,0.2,2.4-0.2c0.9-0.5,1.2-1.8,1.7-2.7c0.5-0.9,0.9-1.8,1.4-2.8c0.9-1.7,1.7-3.4,2.6-5.1c1.7-3.3,3.4-6.5,5.1-9.7
						c3.3-6.2,6.7-12.3,10.1-18.5c4.1-7.5,8.3-14.9,12.3-22.4C383,118.1,379.6,116.2,378.4,118.4L378.4,118.4z"/>
				</g>
			</g>
			<g>
				<g>
					<path class="st2" d="M329.2,170.1c7.8-15.5,16.2-30.7,24-46.1c2.6-5.2,5.3-10.4,8.5-15.3c1.4-2.1-2-4-3.3-2
						c-5.4,8.4-9.6,17.6-14.2,26.5c-3.6,7-7.3,13.9-11,20.8c-2.5,4.7-4.9,9.4-7.3,14.1C324.7,170.4,328.1,172.3,329.2,170.1
						L329.2,170.1z"/>
				</g>
			</g>
			<g>
				<g>
					<path class="st2" d="M301.2,68.9c18.8,16,39.7,29.5,61.4,41.2c17.9,9.6,36.4,18.1,55.3,25.6c6.6,2.7,13.3,5.2,20.1,7.6
						c2.3,0.8,3.4-2.9,1-3.7c-14-5.1-27.9-10.6-41.5-16.7c-20.7-9.3-40.8-19.8-59.9-32c-11.7-7.5-23-15.7-33.6-24.7
						C302,64.5,299.3,67.3,301.2,68.9L301.2,68.9z"/>
				</g>
			</g>
			<g>
				<g>
					<path class="st2" d="M351.8,193.2c-4.1,0.5-8.2-0.8-12-2c-3.4-1.1-6.8-2.5-10-4.1c-6.6-3.3-12.7-7.5-18.1-12.5
						c-1.8-1.7-4.6,1-2.7,2.7c5.7,5.3,12.2,9.9,19.2,13.3c3.5,1.7,7.2,3.2,10.9,4.4c4,1.3,8.4,2.5,12.7,2.1c1-0.1,1.9-0.8,1.9-1.9
						C353.8,194.2,352.9,193.1,351.8,193.2L351.8,193.2z"/>
				</g>
			</g>
			<g>
				<g>
					<path class="st2" d="M333.3,190.5c-3.2,7.5-6.3,15-9.3,22.6c-0.4,1,0.4,2.1,1.4,2.4c1.1,0.3,2-0.4,2.4-1.4
						c2.9-7.3,5.9-14.5,8.9-21.7c0.4-1,0.3-2.1-0.7-2.6C335.2,189.3,333.7,189.5,333.3,190.5L333.3,190.5z"/>
				</g>
			</g>
			<g>
				<g>
					<path class="st2" d="M322.3,186.1c-3.1,5-6.2,9.9-9.3,14.9c-1.3,2.1,2,4.1,3.3,2c3.1-5,6.2-9.9,9.3-14.9
						C327,186,323.7,184,322.3,186.1L322.3,186.1z"/>
				</g>
			</g>
		</g>
		<path class="st8" d="M341.6,98.4L356,78.9c2.4-3.3,1.7-8-1.6-10.4c-3.5-2.5-8.1-5.4-12.7-7.1c-3.6-1.3-7.7,0.6-9.1,4.2l-9.4,22.7
			c-1.5,3.6,0,7.6,3.5,9.4l5.7,2.9C335.5,102.3,339.5,101.3,341.6,98.4z"/>
		<path class="st8" d="M413.9,141.9l14.4-19.5c2.4-3.3,1.7-8-1.6-10.4c-3.5-2.5-8.1-5.4-12.7-7.1c-3.6-1.3-7.7,0.6-9.1,4.2
			l-9.4,22.7c-1.5,3.6,0,7.6,3.5,9.4l5.7,2.9C407.8,145.7,411.8,144.8,413.9,141.9z"/>
		<g>
			<g>
				<path class="st2" d="M0,984.5c6.9,0,13.7,0,20.6,0c18.5,0,37,0,55.5,0c27.4,0,54.8,0,82.2,0c33.4,0,66.9,0,100.3,0
					c36.5,0,73,0,109.5,0c37.1,0,74.2,0,111.3,0c34.3,0,68.7,0,103,0c29.1,0,58.3,0,87.4,0c20.9,0,41.9,0,62.8,0
					c9.9,0,19.8,0.1,29.7,0c0.4,0,0.9,0,1.3,0c1.7,0,1.7-2.6,0-2.6c-6.9,0-13.7,0-20.6,0c-18.5,0-37,0-55.5,0c-27.4,0-54.8,0-82.2,0
					c-33.4,0-66.9,0-100.3,0c-36.5,0-73,0-109.5,0c-37.1,0-74.2,0-111.3,0c-34.3,0-68.7,0-103,0c-29.1,0-58.3,0-87.4,0
					c-20.9,0-41.9,0-62.8,0c-9.9,0-19.8-0.1-29.7,0c-0.4,0-0.9,0-1.3,0C-1.7,981.9-1.7,984.5,0,984.5L0,984.5z"/>
			</g>
		</g>
		<g>
			<path class="st2" d="M41.1,943.1v43c0,0,217.9,10,345.4,0v-43H41.1z"/>
			<path class="st0" d="M55.4,477.2l-17.9-71.7c0,0,162-82.4,361.9,0l-14.3,71.7H55.4z"/>
			<path class="st1" d="M41.1,943.1L19.6,480c0,0,184.9-67.4,404.2,0l-37.3,463C386.5,943.1,252.8,964.1,41.1,943.1z"/>
			<path class="st11" d="M269.4,849.8c57.4-19.7,89.5-85.6,87.5-147.7c-88.5,12.8-178.3,17.3-268.2,19.9
				C89,762.3,153.9,889.5,269.4,849.8z"/>
			<path class="st11" d="M255.3,900.1C174.3,914.5,90,886.9,35.7,827.5l5.4,115.6c211.7,21,345.4,0,345.4,0l12.4-153.7
				C365.2,842.7,319,888.8,255.3,900.1z"/>
			
				<ellipse transform="matrix(0.7071 -0.7071 0.7071 0.7071 -419.5907 357.4625)" class="st0" cx="221.7" cy="685.2" rx="140.3" ry="140.3"/>
			
				<ellipse transform="matrix(0.7071 -0.7071 0.7071 0.7071 -419.5907 357.4626)" class="st2" cx="221.7" cy="685.2" rx="98.2" ry="98.2"/>
			<path class="st1" d="M234.9,587.9c-30.7,52.2-60.3,104.9-92,155.8c7.7,10.4,17.5,19.2,28.7,25.9c31.8-57.2,60.8-115.7,91.3-173.5
				C254.1,592.1,244.8,589.3,234.9,587.9z"/>
			<path class="st1" d="M281.9,607.8c-28,57.2-53.1,116.5-86.9,172c7.8,2.2,16,3.4,24.4,3.6c28.1-51.6,54.9-103.1,81.6-155.9
				C295.6,620,289.2,613.4,281.9,607.8z"/>
			<g>
				<g>
					<path class="st2" d="M187.3,544.3c-13.7,4.6-26.8,11-38.9,19c-12.1,8-23.1,17.5-32.8,28.3c-9.9,11.1-18.6,23.5-25.1,36.9
						c-7.7,15.8-10.4,33.4-11.4,50.9c-0.9,17.2,0.5,34.6,5.4,51.2c0.6,2.1,1.3,4.1,2,6.1c0.4,1.3,1.7,2.1,3.1,1.8
						c1.2-0.3,2.2-1.8,1.8-3.1c-5.5-15.9-7.7-32.7-7.4-49.5c0.1-8.4,0.9-16.7,2.1-25c1.3-8.5,3.2-16.9,6.5-24.8
						c5.6-13.5,13.9-26.1,23.3-37.2c9-10.7,19.4-20.2,30.8-28.3c11.4-8.1,23.9-14.8,37.1-19.7c1.6-0.6,3.3-1.2,4.9-1.7
						C191.7,548.1,190.4,543.3,187.3,544.3L187.3,544.3z"/>
				</g>
			</g>
			<g>
				<g>
					<path class="st2" d="M22.6,481.4c24.1-7.8,48.7-13.9,73.6-18.3c25.1-4.4,50.5-7.2,75.9-8.5c25.6-1.3,51.3-1.2,76.9,0.2
						c26.2,1.4,52.4,4.1,78.4,7.8c25.9,3.7,51.6,8.4,77.1,13.9c3.3,0.7,6.5,1.4,9.8,2.1c3.2,0.7,4.5-4.1,1.3-4.8
						c-25.8-5.7-51.7-10.7-77.8-14.7c-26-4-52.2-7-78.5-8.7c-25.9-1.7-52-2.2-77.9-1.3c-25.6,1-51.1,3.4-76.3,7.4
						c-25.2,4-50.2,9.6-74.7,17.1c-3.1,0.9-6.2,1.9-9.2,2.9C18.2,477.6,19.5,482.4,22.6,481.4L22.6,481.4z"/>
				</g>
			</g>
			<circle class="st1" cx="101.6" cy="423.1" r="24.4"/>
			<circle class="st2" cx="159.1" cy="417" r="21.8"/>
			<path class="st1" d="M299.5,400.5c-16.4-2.5-34.3-3.7-51.4-1.8v33.1c0,0,20.7,1,46.8,4.3C296.2,424.2,297.6,412.3,299.5,400.5z"
				/>
			<path class="st1" d="M319.2,404.3c-1.8,11.5-3.2,23.1-4.6,34.7c13.5,2.2,27.3,4.9,39.9,8.5L362,417
				C362,417,344.1,409.8,319.2,404.3z"/>
		</g>
		<g>
			<g>
				<path class="st3" d="M687,922.6c-4.6-3.8-8.3-7.3-11.2-10.5c-7.8-8.5-9.9-20.9-5.2-31.4c3.9-8.8,5.5-25-16.5-47.6h-34.5
					c-21.9,22.5-20.4,38.8-16.5,47.6c4.7,10.5,2.6,22.9-5.2,31.4c-2.9,3.2-6.6,6.7-11.2,10.5c-27.8,23.1,1.8,78.6,1.8,78.6
					c14.6,10.9,86.9,11,101.6,0.1C690.1,1001.4,714.8,945.7,687,922.6z"/>
				<g>
					<g>
						<ellipse class="st2" cx="637.5" cy="830.9" rx="23.6" ry="4.1"/>
						<rect x="613.9" y="808" class="st2" width="47.2" height="22.9"/>
					</g>
					<path class="st1" d="M613.9,808c0,2.2,10.6,4.1,23.6,4.1c13,0,23.6-1.8,23.6-4.1c0-2.2-10.6-4.1-23.6-4.1
						C624.5,804,613.9,805.8,613.9,808z"/>
					<ellipse class="st2" cx="637.5" cy="807.5" rx="18.3" ry="3.1"/>
					<polygon class="st2" points="619.2,807.5 625.4,782.7 649.7,782.7 655.8,807.5 					"/>
				</g>
			</g>
			<path class="st1" d="M625.4,782.7c0,1.2,5.4,2.1,12.1,2.1c6.7,0,12.1-0.9,12.1-2.1c0-1.2-5.4-2.1-12.1-2.1
				C630.8,780.7,625.4,781.6,625.4,782.7z"/>
			<g>
				<g>
					<path class="st2" d="M654.7,835.5c3.8,3.8,7.2,8,10.1,12.5c2.9,4.6,5.6,9.6,6.7,14.9c2.2,10.6-6.4,19.1-6.3,29.5
						c0.1,10.6,7.6,19.2,14.7,26.4c3.7,3.8,7.5,7.5,10.6,11.8c3,4.4,5.1,9.4,6.4,14.6c3,12.5,0.9,25.5-3.1,37.5
						c-0.6,1.9,2.4,2.8,3.1,0.8c3.7-11.1,5.7-22.9,4-34.5c-0.8-5.3-2.4-10.6-4.8-15.4c-2.5-4.8-5.9-8.9-9.6-12.8
						c-7.1-7.5-16-15-17.7-25.8c-1.7-10.6,7.4-19.3,6.4-29.9c-0.6-6.2-3.5-12-6.6-17.3c-3.2-5.3-7.1-10.3-11.5-14.7
						C655.5,831.9,653.3,834.1,654.7,835.5L654.7,835.5z"/>
				</g>
			</g>
			<path class="st8" d="M609.3,932.5c0,18.1,12.6,32.8,28.2,32.8c15.6,0,28.2-14.7,28.2-32.8c0-18.1-12.6-46.4-28.2-46.4
				C621.9,886.1,609.3,914.4,609.3,932.5z"/>
			<g>
				<g>
					<path class="st2" d="M654.6,901.1c6.6,11.9,9.6,25.4,9,39c-0.1,2,3.1,2,3.2,0c0.7-14.1-2.6-28.2-9.4-40.6
						C656.4,897.7,653.7,899.3,654.6,901.1L654.6,901.1z"/>
				</g>
			</g>
			<g>
				<g>
					<path class="st2" d="M663.4,943.7c-0.6,2.1-1.2,4.2-1.8,6.3c-0.2,0.8,0.3,1.8,1.1,1.9c0.8,0.2,1.7-0.3,1.9-1.1
						c0.6-2.1,1.2-4.2,1.8-6.3c0.2-0.8-0.3-1.8-1.1-1.9C664.5,942.4,663.6,942.8,663.4,943.7L663.4,943.7z"/>
				</g>
			</g>
		</g>
		<g>
			<path class="st7" d="M417.2,900.9c-20.1-29.6-18.8-68.8-18.8-68.8h-36.2c0,0,1.3,4.9-1.3,17.5c-2.6,12.5-34.2,41.8-45.4,57.6
				c-11.2,15.8,18.4,94.8,18.4,94.8c42.8,19.4,83.3,0,83.3,0S437.3,930.5,417.2,900.9z M357.5,912c-4.2,23-22.6,21.7-30.5,12.5
				c-6.6-7.6,8.9-31.2,19.9-38.2c3.4-2.2,8-0.9,9.7,2.8C358.4,893.1,359.7,900.1,357.5,912z"/>
			<g>
				<g>
					<ellipse class="st0" cx="380.2" cy="836.7" rx="26.8" ry="4.6"/>
					<rect x="353.4" y="810.7" class="st0" width="53.6" height="26"/>
				</g>
				<path class="st7" d="M353.4,810.7c0,2.5,12,4.6,26.8,4.6c14.8,0,26.8-2.1,26.8-4.6c0-2.5-12-4.6-26.8-4.6
					C365.4,806,353.4,808.1,353.4,810.7z"/>
				<ellipse class="st0" cx="380.2" cy="810.1" rx="20.8" ry="3.6"/>
				<ellipse class="st0" cx="380.2" cy="781.9" rx="13.8" ry="2.4"/>
				<polygon class="st0" points="359.4,810.1 366.4,781.9 394,781.9 401,810.1 				"/>
			</g>
			<g>
				<g>
					<path class="st2" d="M396.4,840.1c-2.2,22.1,10.1,41.8,18.6,61.3c4.3,10,7.3,20.4,8.3,31.4c0.9,11,0.1,22.2-1.6,33.1
						c-2.1,12.6-5.3,25-8.6,37.4c-0.5,2,2.5,2.8,3.1,0.8c5.7-21.7,11.6-43.9,10.6-66.6c-0.5-10.9-2.6-21.6-6.6-31.8
						c-3.9-10.2-9.1-19.8-13.4-29.8c-4.8-11.3-8.4-23.4-7.2-35.8C399.8,838.1,396.6,838.1,396.4,840.1L396.4,840.1z"/>
				</g>
			</g>
			<g>
				<g>
					<path class="st2" d="M406.2,835.5c-13,4.6-27.6,4.4-41.1,2.6c-3.1-0.4-6.1-0.9-9.2-1.6c-2-0.4-2.8,2.6-0.8,3.1
						c13,2.8,26.8,3.8,40.1,1.8c4-0.6,8-1.5,11.9-2.9C409,837.9,408.1,834.8,406.2,835.5L406.2,835.5z"/>
				</g>
			</g>
			<g>
				<g>
					<path class="st2" d="M346.8,885.3c-7.6,3.7-12.9,10.7-17,17.9c-4.3,7.6-7.7,17.1-3,25.4c1,1.8,3.7,0.2,2.7-1.6
						c-4.3-7.5-0.6-16.2,3.4-22.9c3.8-6.5,8.5-12.6,15.4-16C350.2,887.2,348.6,884.4,346.8,885.3L346.8,885.3z"/>
				</g>
			</g>
			<path class="st0" d="M363.5,936.3c0,15,10.4,27.1,23.3,27.1s23.3-12.2,23.3-27.1c0-15-10.4-38.4-23.3-38.4
				S363.5,921.3,363.5,936.3z"/>
			<g>
				<g>
					<path class="st2" d="M391.6,900.9c9.3,9,15.3,21.1,16.7,34c0.2,2,3.4,2,3.2,0c-1.5-13.7-7.7-26.6-17.7-36.2
						C392.3,897.3,390.1,899.5,391.6,900.9L391.6,900.9z"/>
				</g>
			</g>
			<g>
				<g>
					<path class="st2" d="M407.7,942.8c-0.3,1-0.6,2-0.9,3c-0.2,0.5-0.3,1-0.5,1.4c-0.1,0.2-0.2,0.5-0.3,0.7c0,0.1-0.1,0.2-0.1,0.3
						c-0.1,0.2-0.1,0.1,0-0.1c0,0.1-0.1,0.1-0.1,0.2c-0.2,0.4-0.3,0.8-0.2,1.2c0.1,0.4,0.4,0.8,0.7,0.9c0.4,0.2,0.8,0.3,1.2,0.2
						c0.4-0.1,0.8-0.4,0.9-0.7c0.9-2.1,1.7-4.2,2.3-6.4c0.2-0.8-0.3-1.8-1.1-1.9C408.8,941.5,407.9,941.9,407.7,942.8L407.7,942.8z"
						/>
				</g>
			</g>
		</g>
		<g>
			<g>
				<g>
					<path class="st0" d="M456.6,841.8c-3.8-6.7-5.8-14.7-4.5-22.4c1.2-6.8,4.9-13,10.6-17c5.4-3.8,12.1-5,18.4-2.9
						c5.7,1.9,11.1,6.8,12.3,12.9c0.4,2.2,0.1,5.5-2,6.8c-2.8,1.7-5.2-2.1-6-4.3c-2.7-7.1-2.2-15.5,1-22.2c3.1-6.3,8.6-11.4,15.1-14
						c7.6-3,16-2.3,23.8,0.1c7.1,2.2,13.6,6.1,17.1,12.9c3.3,6.4,3.6,14.2,2.5,21.2c-1,5.8-3.8,13.5-10.9,13.2
						c-2.3-0.1-4.9-1.2-5.7-3.5c-1.1-3,1.2-5.9,3.6-7.5c5.6-3.9,13.6-4.1,20.1-2.7c6.9,1.4,13.5,4.9,18.6,9.7
						c10.9,10.4,15.4,26.1,14.4,40.9c-1.1,15-8.2,29.8-20.8,38.4c-6,4.1-13,6.9-20.3,7.5c-3.8,0.3-7.8,0.2-11.4-1
						c-3.6-1.2-6.5-3.6-9.1-6.2c-2.5-2.5-5-5.1-7.8-7.2c-1.6-1.2-3.2,1.5-1.6,2.7c3.3,2.4,5.9,5.6,8.9,8.3c3.2,2.9,6.8,5.1,11.1,6
						c8.2,1.7,16.9,0,24.4-3.3c15.7-7,26-22.1,29-38.8c2.9-16.5-0.8-34.8-12.3-47.4c-5.4-6-12.6-10.4-20.4-12.4
						c-7.4-1.9-16.4-2.1-23.2,1.8c-3,1.7-5.9,4.5-6.5,8.1c-0.5,3.3,1,6.5,3.9,8.2c2.7,1.6,6.3,1.8,9.3,0.8c3.5-1.2,6-4.2,7.6-7.5
						c1.7-3.6,2.4-7.6,2.7-11.5c0.3-4.1,0.2-8.2-0.7-12.2c-1.8-8.3-6.9-14.9-14.5-18.8c-7.9-4.1-17.7-6-26.5-4.6
						c-7.8,1.3-15,5.7-19.9,12c-5.2,6.7-7.3,15.5-6.1,23.9c0.6,3.8,1.7,8.2,4.6,10.9c2.5,2.4,6.4,2.7,8.9,0.1c2.2-2.4,2.7-6,2.2-9.1
						c-0.6-3.5-2.6-6.8-5-9.3c-5-5.2-12.5-7.9-19.7-7c-7.6,1-14.2,5.8-18.3,12.1c-4.6,7-5.7,15.7-4.1,23.9c0.8,4.2,2.4,8.2,4.6,11.9
						C454.8,845.2,457.6,843.6,456.6,841.8L456.6,841.8z"/>
				</g>
			</g>
			<g>
				<path class="st8" d="M412.9,857.6l-22.2,46.1c0,0,10.2,18.7,34.7,7.8L412.9,857.6z"/>
				<path class="st10" d="M550.9,835.8c-21.9-0.6-69.8,0-127.7,11.7c-6.7,1.4-11.2,7.8-10.1,14.5l22.3,141.5
					c1,6.2,6.3,10.8,12.6,10.8h98.4c6.9,0,12.6-5.5,12.8-12.4l4.1-153C563.5,841.9,558,836,550.9,835.8z"/>
			</g>
			<path class="st5" d="M502.8,876.5l5.7,16l14.7-8.6c7-4.1,15.2,2.8,12.4,10.4l-5.9,15.9l16.8,2.9c8,1.4,9.8,12,2.8,16l-14.8,8.4
				l11,13c5.2,6.2-0.2,15.5-8.1,14l-16.7-3l0.1,17c0,8.1-10.1,11.8-15.2,5.5l-10.8-13.1L483.8,984c-5.2,6.2-15.3,2.5-15.2-5.5
				l0.1-17l-16.7,3c-8,1.4-13.3-7.9-8.1-14l11-13l-14.8-8.4c-7-4-5.2-14.6,2.8-16l16.8-2.9l-5.9-15.9c-2.8-7.6,5.4-14.5,12.4-10.4
				l14.7,8.6l5.7-16C489.3,868.9,500.1,868.9,502.8,876.5z"/>
			<path class="st8" d="M501,895.9c0,0-3.4,11.6-12.5,14c-9,2.4-17.8-5.9-17.8-5.9c-9.2,8.7-19.3,15.8-19.3,15.8
				c2.1,7.2,14.4,14.1,14.4,14.1l5-8.9c1.6,9.5,5.4,42.6,5.4,42.6c10.6,2.2,26.5-1.1,27.2-1.3l0,0c0,0,0,0,0,0c0,0,0,0,0,0v0
				c0.7-0.2,16.7-4.6,24.2-12.5c0,0-13.2-30.7-16.5-39.7l8.8,5.3c0,0,7.3-12.1,5.5-19.4C525.5,900,513.2,898.8,501,895.9z"/>
			<g>
				<g>
					<path class="st2" d="M413.5,858.2c1.1,18.9,4.4,37.6,7.7,56.2c1.7,9.3,3.3,18.7,4.8,28c1.5,9.5,2.6,19,3.8,28.6
						c1.3,10.8,2.6,21.7,3.9,32.5c0.2,2,3.4,2,3.2,0c-2.3-19.1-4.3-38.3-7.1-57.3c-2.7-18.8-6.6-37.3-9.5-56.1
						c-1.6-10.6-2.9-21.2-3.6-31.9C416.5,856.2,413.3,856.2,413.5,858.2L413.5,858.2z"/>
				</g>
			</g>
			<g>
				<g>
					<path class="st2" d="M421.3,911.3c-5.2,2.8-11.5,3.6-17,1.3c-4.9-2.1-8.8-6.2-12.5-10c-1.4-1.5-3.7,0.8-2.2,2.2
						c4.2,4.2,8.5,8.7,14.1,10.9c6.2,2.5,13.4,1.4,19.2-1.7C424.7,913.1,423.1,910.3,421.3,911.3L421.3,911.3z"/>
				</g>
			</g>
			<g>
				<g>
					<path class="st2" d="M421,849.2c16.8-2.8,33.6-5.7,50.4-8.5c2-0.3,1.2-3.4-0.8-3.1c-16.8,2.8-33.6,5.7-50.4,8.5
						C418.2,846.4,419,849.5,421,849.2L421,849.2z"/>
				</g>
			</g>
			<g>
				<g>
					<path class="st2" d="M452.8,919.8c6.6-4.1,12.6-9,18-14.6c-0.7,0-1.5,0-2.2,0c5.1,5,12.6,7.2,19.5,5.5
						c6.6-1.6,12-6.5,14.5-12.8c0.8-1.9-2.3-2.7-3.1-0.8c-2.1,5.2-6.8,9.2-12.2,10.6c-5.8,1.4-12.2-0.5-16.4-4.7
						c-0.6-0.6-1.6-0.6-2.2,0c-5.2,5.4-11,10.1-17.4,14.1C449.5,918.1,451.1,920.9,452.8,919.8L452.8,919.8z"/>
				</g>
			</g>
			<g>
				<g>
					<path class="st2" d="M469.2,921.6c1.2,14.9,4.2,29.7,5.3,44.6c0.2,2,3.3,2,3.2,0c-1.2-14.9-4.2-29.7-5.3-44.6
						C472.2,919.5,469.1,919.5,469.2,921.6L469.2,921.6z"/>
				</g>
			</g>
		</g>
		<path class="st7" d="M517.6,625.1l2.1,8.9l8.9,2.1c1.3,0.3,1.3,2.2,0,2.5l-8.9,2.1l-2.1,8.9c-0.3,1.3-2.2,1.3-2.5,0l-2.1-8.9
			l-8.9-2.1c-1.3-0.3-1.3-2.2,0-2.5l8.9-2.1l2.1-8.9C515.4,623.8,517.3,623.8,517.6,625.1z"/>
		<path class="st7" d="M303.8,313.6l2.1,8.9l8.9,2.1c1.3,0.3,1.3,2.2,0,2.5l-8.9,2.1l-2.1,8.9c-0.3,1.3-2.2,1.3-2.5,0l-2.1-8.9
			l-8.9-2.1c-1.3-0.3-1.3-2.2,0-2.5l8.9-2.1l2.1-8.9C301.6,312.3,303.4,312.3,303.8,313.6z"/>
		<path class="st7" d="M69.3,112.4l2.1,8.9l8.9,2.1c1.3,0.3,1.3,2.2,0,2.5l-8.9,2.1l-2.1,8.9c-0.3,1.3-2.2,1.3-2.5,0l-2.1-8.9
			l-8.9-2.1c-1.3-0.3-1.3-2.2,0-2.5l8.9-2.1l2.1-8.9C67.1,111.1,69,111.1,69.3,112.4z"/>
		<path class="st7" d="M232.1,38l1.7,7.2l7.2,1.7c1.1,0.3,1.1,1.8,0,2l-7.2,1.7l-1.7,7.2c-0.3,1.1-1.8,1.1-2,0l-1.7-7.2l-7.2-1.7
			c-1.1-0.3-1.1-1.8,0-2l7.2-1.7l1.7-7.2C230.4,36.9,231.9,36.9,232.1,38z"/>
		<g>
			<g>
				<g>
					<path class="st0" d="M499.4,701.2c-0.1,13.2-8.4,25.5-21,30c-12.7,4.6-27,0.6-35.6-9.7c-8.5-10.3-9.6-25.3-2.7-36.7
						c6.9-11.4,20.5-17.4,33.5-14.8c13,2.6,23.1,13.2,25.3,26.2C499.3,697.8,499.4,699.5,499.4,701.2c0,2.2,3.4,2.2,3.4,0
						c-0.1-14.7-9.4-28-23.1-33.1c-13.8-5.1-29.9-0.7-39.3,10.6c-9.4,11.4-10.8,28-3.1,40.7c7.6,12.7,22.7,19.3,37.2,16.4
						c14.2-2.8,25.6-14.7,27.9-29c0.3-1.9,0.4-3.7,0.5-5.6C502.8,699.1,499.4,699.1,499.4,701.2z"/>
				</g>
			</g>
			<circle class="st5" cx="459.3" cy="693.8" r="15.1"/>
			<g>
				<g>
					<path class="st0" d="M489.4,698.4c0.9,8.9-3.4,17.8-11,22.5c-1.9,1.1-0.2,4.1,1.7,2.9c8.6-5.2,13.8-15.4,12.7-25.4
						c-0.1-0.9-0.7-1.7-1.7-1.7C490.3,696.7,489.3,697.5,489.4,698.4L489.4,698.4z"/>
				</g>
			</g>
		</g>
		<g>
			<g>
				<g>
					<path class="st0" d="M178.5,149.6c-0.1,8.1-5.1,15.5-12.8,18.3c-7.7,2.8-16.4,0.4-21.7-5.8c-5.3-6.3-5.9-15.5-1.7-22.5
						c4.2-7,12.5-10.7,20.5-9.1C171.9,132.3,178.5,140.4,178.5,149.6c0,1.3,2.1,1.3,2.1,0c-0.1-9-5.8-17.2-14.3-20.3
						c-8.4-3.1-18.3-0.3-23.9,6.6c-5.7,7-6.5,17-1.8,24.7c4.7,7.8,13.8,11.8,22.7,10.1c10-1.9,17.3-11,17.3-21.1
						C180.6,148.3,178.6,148.3,178.5,149.6z"/>
				</g>
			</g>
			<ellipse transform="matrix(0.2307 -0.973 0.973 0.2307 -22.5849 261.5246)" class="st5" cx="154.1" cy="145" rx="9.2" ry="9.2"/>
			<g>
				<g>
					<path class="st0" d="M172.5,147.9c0.6,5.4-2.1,10.9-6.7,13.7c-1.1,0.7-0.1,2.5,1,1.8c5.2-3.2,8.4-9.4,7.7-15.5
						c-0.1-0.6-0.4-1-1-1C173,146.8,172.4,147.3,172.5,147.9L172.5,147.9z"/>
				</g>
			</g>
		</g>
		<polyline class="st12" points="0,590.2 0,0 1000.5,0 1000.5,1080 0,1080 0,590.2 		"/>
	</g>
</g>
<g id="TEXTS">
</g>
</svg>
